<svg width="217" height="488" viewBox="0 0 217 488" fill="none" xmlns="http://www.w3.org/2000/svg">
<g opacity="0.12">
<path fill-rule="evenodd" clip-rule="evenodd" d="M60.5638 116.459C58.1043 117.699 55.1775 116.554 54.0147 113.935C52.862 111.306 53.9061 108.141 56.3681 106.922C66.121 102.034 74.1976 108.214 81.0406 114.421C85.3533 118.345 91.9672 121.274 96.3397 116.633C98.2519 114.574 101.351 114.595 103.275 116.659C105.192 118.742 105.187 122.067 103.262 124.115C95.8985 131.934 84.4229 131.284 74.7061 122.439C66.8873 115.388 63.7045 114.895 60.5638 116.46V116.459Z" fill="#915507"/>
<path fill-rule="evenodd" clip-rule="evenodd" d="M54.1573 146.665C47.8086 151.028 39.8685 156.468 24.7494 153.544C18.5497 152.341 14.4011 150.842 11.0778 149.638C6.64964 148.021 4.60864 147.289 0.82719 148.23C-1.8024 148.889 -4.44379 147.124 -5.06772 144.281C-5.69333 141.447 -4.05563 138.616 -1.40836 137.956C5.08435 136.341 9.29944 137.875 14.1999 139.642C17.381 140.805 20.9823 142.11 26.457 143.177C37.7904 145.371 42.9225 141.841 48.8729 137.77C55.6216 133.142 63.2847 127.886 78.4509 132.766C81.0274 133.586 82.5397 136.531 81.765 139.343C80.9685 142.108 78.2387 143.701 75.6454 142.861C64.8113 139.365 60.3562 142.421 54.1565 146.665H54.1573Z" fill="#915507"/>
<path fill-rule="evenodd" clip-rule="evenodd" d="M23.9418 479.012C25.5046 477.509 28.9139 478.617 28.9139 478.617C30.1373 479.243 35.4909 479.644 38.0674 478.102C40.0276 476.933 42.5183 477.702 43.6499 479.83C44.7345 481.948 44.0187 484.626 42.0476 485.796C36.7252 488.957 26.0291 488.864 23.1057 484.563C21.8578 482.734 22.3672 480.515 23.9409 479.012H23.9418Z" fill="#915507"/>
<path fill-rule="evenodd" clip-rule="evenodd" d="M123.616 205.342C122.486 202.551 122.292 202.496 119.878 203.364C116.607 204.498 110.058 207.552 108.217 210.923C107.397 212.467 116.091 211.246 116.772 211.132C119.583 210.653 124.165 209.837 125.03 207.837C125.353 207.074 124.25 206.879 123.616 205.342ZM134.605 231.326C134.079 231.898 133.571 232.404 133.051 232.817C127.706 236.944 121.72 232.367 117.238 229.055C110.642 224.134 105.98 222.558 98.1238 221.606C95.1296 221.241 91.5006 221.612 89.9176 218.558C86.9234 212.81 94.3886 206.559 98.1961 203.686C100.775 201.749 104.177 201.15 107.025 199.769C114.035 196.361 123.475 193.562 127.64 185.982C130.43 180.892 132.154 181.237 136.951 184.223C139.354 185.714 144.844 187.833 144.465 191.434C143.713 198.429 134.339 199.985 134.355 209.024C134.364 215.947 140.321 224.727 134.604 231.325L134.605 231.326Z" fill="#915507"/>
<path fill-rule="evenodd" clip-rule="evenodd" d="M-224.483 472.834C-223.198 471.37 -222.17 470.295 -221.563 469.762C-214.054 463.283 -206.445 455.956 -197.709 450.41C-168.68 431.969 -136.736 433.405 -106.944 419.364C-102.762 417.381 -98.6129 414.993 -95.1986 411.703C-93.8977 410.439 -92.7037 409.026 -91.748 407.442C-91.29 406.693 -90.7073 405.908 -90.613 404.984C-90.5027 403.869 -90.8437 402.681 -90.8867 401.623C-90.9187 400.99 -90.8546 400.345 -90.6686 399.746C-90.3174 398.555 -90.0337 396.791 -90.0994 395.242C-90.1482 394.122 -90.3949 393.104 -90.8563 392.474C-91.4744 391.677 -94.0172 389.752 -96.0271 388.242C-103.229 382.822 -113.072 375.394 -115.839 364.652C-116.278 362.919 -116.516 361.244 -116.584 359.596C-116.857 353.143 -114.506 347.476 -112.12 342.327L-111.706 342.917C-111.3 344.553 -110.884 346.171 -110.461 347.776C-109.07 349.583 -107.677 351.386 -106.289 353.146L-106.897 349.576C-105.961 350.843 -105.024 352.098 -104.084 353.335C-102.436 354.258 -100.788 355.183 -99.1551 356.069C-102.056 351.47 -105.128 346.436 -108.266 341.036L-109.063 335.649C-107.873 332.827 -106.923 330.005 -106.543 326.995C-106.264 324.547 -106.16 322.18 -106.066 319.743C-106.007 318.681 -105.945 317.606 -106.052 316.541C-106.208 314.615 -106.225 312.504 -106.761 310.65C-107.102 309.475 -107.408 308.284 -107.668 307.08C-107.921 305.91 -108.152 304.731 -108.364 303.544L-108.309 303.227C-105.837 302.452 -99.1686 299.783 -93.5853 292.257C-93.2443 291.803 -92.9151 291.307 -92.5968 290.778C-92.3593 292.645 -91.8255 294.472 -91.2596 295.784C-89.1268 300.635 -84.0277 304.273 -76.0808 306.565C-71.0667 308.002 -64.3778 309.063 -61.0418 305.844C-58.6816 303.582 -57.5887 298.264 -59.4453 295.223C-61.254 292.29 -64.7786 292.313 -67.6044 291.542C-72.0072 290.356 -76.293 288.612 -80.2664 286.297C-82.5365 284.988 -86.5032 282.442 -89.3483 283.077C-88.018 278.762 -87.1339 274.031 -86.6556 270.13C-85.4886 271.321 -83.6925 272.049 -82.2014 273.124C-74.9946 278.306 -68.1374 281.779 -59.4361 283.427C-50.8392 285.035 -43.9676 282.753 -40.5238 277.184C-37.8799 272.946 -38.8945 266.46 -43.3732 264.069C-47.8636 261.669 -56.5556 265.721 -60.9517 267.268C-67.9201 269.706 -73.6693 267.683 -79.8505 264.166C-81.8275 263.03 -84.5464 262.043 -86.2632 263.148C-86.3676 261.659 -86.7019 261.257 -87.2517 262.545C-89.6195 268.104 -96.6687 271.422 -103.124 277.571C-106.321 280.686 -107.865 287.166 -108.61 292.867C-108.874 291.11 -109.212 289.377 -109.585 287.753C-109.178 284.881 -108.304 282.099 -106.935 279.564C-106.116 278.027 -105.137 276.479 -103.946 275.268C-102.825 274.125 -102.393 272.477 -102.798 270.818C-103.077 269.598 -103.955 268.35 -104.388 267.15C-104.59 266.638 -104.765 266.118 -104.931 265.596C-101.758 265.107 -95.4066 263.459 -89.5411 257.868C-81.1624 250.141 -76.2543 225.638 -79.4286 230.544C-82.4851 235.48 -90.048 237.458 -97.4787 242.178C-102.279 245.334 -104.877 254.548 -106.093 260.492C-106.216 260.013 -106.392 259.558 -106.665 259.171C-107.855 257.461 -109.982 256.847 -111.64 255.847C-112.482 255.334 -113.308 254.795 -114.118 254.228C-115.73 250.483 -117.47 247.024 -119.043 243.807C-118.305 241.207 -117.883 238.264 -117.681 235.46C-114.316 243.777 -110.252 248.692 -110.252 248.692C-110.252 248.692 -105.331 236.735 -105.664 226.394C-104.073 227.683 -102.271 228.994 -100.411 230.116L-100.443 230.255L-100.134 230.282C-98.0505 231.519 -95.8974 232.511 -93.8918 232.982C-94.0021 231.944 -94.1781 230.932 -94.4147 229.941C-90.9784 229.369 -86.4771 227.989 -82.0422 224.78C-72.7364 218.314 -65.4876 195.27 -69.1655 199.613C-69.6462 200.19 -70.2028 200.709 -70.8242 201.181C-67.9008 196.262 -65.3739 190.875 -62.506 186.077C-48.5852 162.788 -33.9882 139.822 -16.7936 119.169C-8.16385 108.778 1.1302 98.9609 11.2629 90.2624C16.1398 86.1087 21.1902 82.195 26.4738 78.6114C28.7236 77.1142 37.2043 73.1866 36.2612 69.5052C36.0465 68.6592 34.4298 67.9818 32.6119 67.355C37.1091 65.76 41.8244 62.8276 45.4113 60.1266C50.1838 60.7307 54.5352 59.911 58.395 57.67C62.0232 55.5696 64.55 52.6398 66.2214 50.1884C66.5725 48.9078 66.9633 47.6934 67.4053 46.5978C70.4846 45.0133 73.2749 43.2097 75.3033 41.6925L75.5079 41.7929C76.4156 42.2852 78.0541 43.5057 78.1678 46.1456C78.2074 47.1976 78.0146 48.4652 77.4066 50.0261C76.9182 51.2325 76.1319 52.7358 75.1594 54.3448C74.6651 56.7857 74.372 59.773 74.5194 63.2153C74.7072 67.6588 75.5626 72.7187 77.4622 77.9374C78.8532 81.6939 83.4034 85.4565 89.6755 87.948C100.116 92.1585 112.164 92.0206 120.449 87.6242C122.835 86.3557 125.768 87.3544 126.998 89.8555C128.215 92.3506 127.248 95.4086 124.862 96.6823C111.966 103.52 96.4385 101.537 86.1829 97.4279C80.8597 95.2838 75.3774 92.1113 71.7324 87.3876C68.4805 83.1701 67.0626 77.3036 63.33 73.4738C59.6723 69.7348 56.5897 71.8116 52.4437 73.5986C41.16 78.4525 31.0862 84.3906 21.4293 92.2755C9.04001 102.416 -2.16541 114.069 -12.496 126.458C-17.276 132.169 -21.9129 137.961 -25.59 144.326C-27.5931 147.792 -33.3457 152.175 -32.3504 156.685C-30.7607 163.795 -13.7927 159.706 -9.5136 158.62C-0.389618 156.375 5.88083 161.769 11.4246 166.49C16.624 170.963 21.5632 175.188 29.4099 174.83C34.8989 174.585 36.4524 172.235 39.2655 168.01C42.9821 162.437 48.0771 154.798 63.6466 154.09C66.3393 153.966 68.6018 156.145 68.723 158.935C68.8426 161.753 66.7688 164.112 64.076 164.234C53.3228 164.723 50.6325 168.742 47.2552 173.811C46.5589 174.847 45.8214 175.953 45.0181 177.028C44.9785 177.22 44.9498 177.392 44.8943 177.584C42.8718 184.028 40.1083 190.376 35.8814 195.592C32.7888 199.405 28.3826 201.731 25.1569 205.432C23.083 207.809 20.2598 212.798 21.7392 216.039C24.181 221.261 29.5825 216.143 33.1492 215.452C37.4249 214.63 42.039 215.119 46.2314 214.14C50.2865 213.193 53.1602 208.19 51.339 204.569C48.3676 198.757 46.3248 193.238 49.5573 186.506C52.1784 181.047 57.1497 178.252 62.85 179.034C68.169 179.759 77.3688 181.623 77.4437 173.65C77.4723 169.224 72.5525 162.409 79.6767 161.28C84.5182 160.525 89.6233 150.087 91.565 143.284C91.597 143.246 91.6138 143.139 91.6104 143.113C92.4499 140.479 95.1485 139.04 97.688 139.862C105.599 142.432 96.2381 155.067 108.806 152.667C116.237 151.23 117.221 143.88 115.488 137.017C114.971 134.964 115.784 132.813 117.442 131.609C119.12 130.389 121.396 130.436 123.064 131.629C123.298 131.808 125.331 133.184 128.479 132.139C130.658 131.407 128.96 123.451 128.733 121.927C127.965 116.796 124.564 117.663 122.506 114.126C120.1 109.972 124.463 104.868 128.671 106.512L128.301 106.388C128.327 106.385 130.395 106.783 133.884 103.132C135.26 101.733 139.353 97.4235 144.234 98.9818C148.172 100.253 150.195 104.814 150.894 108.836C151.294 110.933 151.096 112.106 152.823 113.57C154.094 114.679 155.82 114.874 156.991 116.213C159.872 119.493 153.749 124.243 155.779 128.114C156.404 129.29 157.766 129.938 158.904 130.301C160.22 130.747 161.361 130.956 162.831 130.888C165.267 130.761 167.293 130.713 169.605 129.797C172.099 128.791 174.204 126.86 175.734 124.584C178.206 120.865 179.812 114.938 176.895 109.453C172.765 101.72 165.622 101.952 162.686 102.428C161.408 103.371 159.7 103.624 158.124 102.977C155.743 101.982 154.56 99.2708 155.301 96.7522C155.474 94.547 156.442 92.1611 157.129 90.0197C158.254 86.4369 156.577 79.1945 152.61 78.0422C152.018 77.8798 151.156 77.8501 150.627 78.0658C149.244 78.6218 151.235 82.243 151.537 83.1963C152.08 84.993 152.506 86.8376 152.701 88.6848C152.903 90.8761 152.749 93.6374 150.994 95.1511C149.387 96.5304 146.865 95.1572 146.009 93.482C145.576 92.5714 145.41 91.6653 144.903 90.7643C144.408 89.8512 143.924 88.924 143.456 88.017C141.375 84.0658 139.307 80.0501 136.633 76.4664C133.882 72.792 130.286 69.4196 125.695 68.7963C119.335 67.9093 113.888 62.9001 107.592 61.2274C99.5185 59.0694 93.6717 66.9656 85.3838 63.4868C82.8864 62.4348 81.6664 59.4884 82.6911 56.8616C83.6923 54.2688 86.5213 53.0143 89.0221 54.0628C92.9298 55.7154 98.9687 52.377 100.542 48.5848C101.011 47.3678 101.08 45.7388 101.203 44.1578C101.138 43.696 101.117 43.2316 101.193 42.7392C101.674 39.0883 101.6 34.2092 98.605 31.894C96.0293 29.8774 91.9557 30.1096 89.2689 31.3876C86.8237 32.5505 83.9423 31.4313 82.8208 28.8891C82.1808 27.3448 82.3113 25.6695 83.0321 24.3112C83.6981 21.267 81.855 18.2796 79.2178 16.0814L81.2049 14.0212C81.5948 13.7078 82.0015 13.3638 82.4216 13.0661C80.1684 11.5297 74.9194 10.9823 68.7357 12.2577C67.8735 12.2909 67.0213 12.4131 66.1895 12.6488C65.6303 12.8042 65.0746 13.0172 64.6317 13.3437C60.7947 14.5816 56.7792 16.5162 53.0104 19.3246C51.1639 17.9758 48.8029 17.2408 45.935 17.0863C44.1626 16.985 42.5013 17.1194 40.9495 17.4494C41.8858 15.4677 42.9492 13.7689 44.2762 12.4542C48.8871 7.93641 25.8237 18.7109 19.0498 30.1733C18.718 30.7739 18.409 31.3702 18.1169 31.9638C18.2953 31.1947 18.4898 30.43 18.6961 29.6748C21.7105 18.6297 19.1576 11.672 7.62039 10.6436C3.04831 10.2324 -3.65321 10.9771 -9.52872 16.8331C-15.1483 22.4534 -15.96 28.1375 -16.8357 34.169C-17.8368 41.0299 -19.0628 49.5555 -29.182 53.8637C-32.1442 55.1078 -36.2607 53.6656 -39.1101 55.4247C-44.9856 59.1401 -37.5161 62.0289 -34.0504 63.5662C-33.5233 63.7993 -32.9895 64.0175 -32.4566 64.2236C-34.4403 66.8801 -36.0662 69.6675 -36.9386 72.3887L-37.2854 73.569C-42.7972 71.1211 -48.3031 67.3995 -52.5459 62.0987C-54.6434 59.4596 -56.2533 56.5971 -57.3689 53.58C-55.7363 50.8458 -55.1023 49.0527 -56.058 49.841C-56.9067 50.5394 -57.5508 50.9837 -58.1141 51.2832C-58.6631 49.325 -59.0151 47.3084 -59.1641 45.2586C-62.7241 46.088 -66.3885 47.0762 -70.0672 48.2556C-67.0175 44.7558 -65.5566 40.9199 -64.2625 37.2184L-63.6225 35.5902C-58.0518 34.272 -52.4171 33.2672 -46.7066 32.3532C-42.8048 31.7159 -38.9484 30.856 -34.991 30.6308C-34.0706 30.5566 -33.0468 30.4081 -32.097 30.4684C-29.8337 30.6875 -26.3377 30.148 -25.6641 27.2287C-25.1639 25.2461 -24.7345 23.3308 -24.0584 21.4233C-22.3542 16.7196 -19.642 12.5467 -16.2142 9.12107C-7.74702 0.625092 1.84843 -0.446945 8.38745 0.129231C16.9557 0.891355 25.3774 4.97085 30.7166 10.7658C35.4445 8.06562 41.3697 6.4401 47.1088 6.62605C50.1266 6.74391 52.8614 7.34802 55.3512 8.38251C62.5958 0.112644 73.6749 0.385891 81.6444 4.60682C88.5388 8.25418 92.977 14.2316 94.011 20.5905C98.0492 20.3574 102.332 21.3185 105.89 24.1706C109.479 27.0297 113.446 32.6535 112.598 43.4018C115.109 46.8807 116.835 52.0086 118.912 54.8537C122.49 59.7023 126.256 59.5129 131.497 61.1681C136.147 62.6216 140.117 65.3288 143.48 68.7815C150.422 66.977 158.573 69.307 163.63 74.7885C166.579 77.9881 170.575 84.498 168.852 95.3406C175.254 95.8059 182.99 98.8439 187.805 108.159C189.536 111.49 190.469 115.144 190.624 118.839C190.855 124.391 189.356 130.068 186.143 135.008C182.205 141.059 175.335 144.758 168.343 146.248C165.166 146.946 161.866 146.451 158.744 145.493C156.774 144.909 155.818 146.915 154.605 148.901C148.496 158.985 153.867 200.119 173.624 238.367C179.087 248.92 187.2 268.916 169.338 274.832C160.542 277.739 154.595 278.813 155.099 290.725C155.161 292.199 155.32 293.615 155.454 294.875C155.541 295.613 155.622 296.459 155.668 297.37C156.019 298.344 156.106 299.449 155.834 300.546C155.729 300.909 155.599 301.247 155.456 301.574C154.922 304.083 153.574 306.365 150.315 307.285C149.762 307.444 149.557 307.701 149.404 308.06C149.222 308.471 149.154 308.998 149.177 309.544C149.199 310.12 149.336 310.724 149.557 311.243C150.416 313.125 150.77 314.827 150.835 316.301C150.917 318.184 150.513 319.718 150.045 320.848C148.799 323.773 146.316 325.71 143.646 326.967C142.14 327.678 140.911 327.745 141.074 329.886C141.21 331.36 141.916 332.701 142.368 334.103C143.216 336.722 144.185 339.703 144.679 342.723C144.865 343.924 145.175 345.596 145.259 347.602C145.601 355.707 142.651 368.898 117.489 375.055C105.221 378.039 91.6323 378.655 82.3063 377.327C78.7059 376.821 78.5796 393.038 80.0986 396.928C83.7924 406.489 95.3397 409.726 102.015 411.829C118.721 417.112 135.83 419.034 153.051 420.21C161.242 420.759 169.611 421.967 177.37 424.589C191.131 429.218 202.252 437.431 211.962 447.542C214.667 450.357 217.948 459.082 214.976 462.851C214.154 463.892 213.289 462.17 207.5 455.512C189.963 435.331 170.818 429.033 151.711 428.47C132.119 427.893 106.379 420.773 100.308 433.234C99.0959 435.523 97.1441 439.231 97.7975 441.997C98.1024 443.368 98.9746 447.044 96.2103 449.103C93.5049 451.147 90.8122 449.242 88.8613 447.853C87.7978 447.104 86.481 446.16 85.383 445.759C81.6074 444.447 77.2282 445.236 73.8778 447.435C70.562 449.626 69.0826 453.766 66.2534 456.625C60.351 462.549 52.5279 465.256 44.7983 467.181C38.49 468.756 29.489 467.838 23.7271 464.507C21.5741 463.27 20.3119 460.968 20.4618 458.621C20.3742 460.084 40.4864 455.485 43.1135 453.83C57.2086 444.896 57.4334 429.88 55.6812 414.83C53.6907 397.987 52.4294 381.416 53.6032 364.442C53.7716 362.008 31.8777 351.229 39.4389 338.853C40.6548 338.968 41.6341 340.492 42.4365 341.389C54.4326 354.472 67.364 363.569 84.5948 366.245C95.4095 367.918 106.589 366.455 116.838 363.13C125.029 360.471 136.985 356.364 135.015 344.554C134.664 342.38 133.864 339.905 133.1 337.532C132.011 334.278 130.989 331.123 130.862 328.143C130.785 326.305 131.051 324.525 131.889 322.839C132.661 321.211 134.299 319.08 137.668 318.075C138.748 317.759 139.75 317.677 140.39 316.569C140.826 315.837 140.592 315.564 140.315 314.802C139.838 313.42 139.607 311.933 139.402 310.473C138.972 307.699 135.334 309.863 134.017 310.238C132.499 310.645 130.581 310.173 129.169 310.921C128.06 311.518 127.524 312.898 126.785 313.965C126.109 314.926 125.498 316.204 124.818 317.151C123.283 319.242 121.284 322.175 118.376 321.341C118.367 321.133 118.458 320.674 118.416 320.515C118.084 318.074 120.181 314.063 121.3 312.006C122.467 309.848 123.303 307.313 123.895 304.859C124.162 303.668 124.476 302.491 124.684 301.309C124.87 300.334 124.864 298.419 125.674 297.718C127.29 296.346 128.522 298.935 129.803 299.605C131.972 300.779 133.949 298.931 135.757 297.789C137.324 296.78 138.917 295.79 140.612 295.02C142.153 294.322 144.133 294.046 145.031 292.337C145.591 291.295 145.222 289.751 145.249 288.594C145.288 286.744 145.476 284.9 145.783 283.103C145.877 282.55 146.465 280.929 146.212 280.537C145.948 280.123 144.492 280.055 144.076 280.083C143.149 280.248 142.384 280.285 141.493 280.608C140.706 280.882 139.822 280.892 139.029 280.72C137.373 280.322 135.994 279.048 135.402 277.352C134.482 274.628 135.799 271.59 138.336 270.603C146.416 267.45 150.584 268.317 153.937 269.004C155.377 269.308 156.503 269.534 157.963 269.467L159.706 269.429C161.514 269.399 167.074 270.151 170.427 265.599C178.049 255.256 149.983 221.546 146.348 177.131C144.748 157.422 146.465 137.17 144.547 117.543C144.158 113.477 140.148 118.945 139.93 120.341C139.37 123.53 140.7 127.306 140.911 130.509C141.357 137.417 140.293 144.415 133.358 146.799C131.943 147.289 130.05 147.045 128.73 148.003C127.186 149.139 127.55 151.846 127.222 153.643C126.218 158.805 123.564 163.41 119.136 165.902C114.807 168.325 110.18 171.076 105.192 171.542C103.013 171.734 100.871 171.407 98.7986 170.625C97.9078 170.271 96.8081 169.337 95.8979 169.198C93.4856 168.868 91.6349 172.318 90.0283 173.689C86.9264 176.353 87.8955 178.497 87.7852 182.212C87.6455 185.83 86.6013 189.386 84.1982 192.023C82.1926 194.238 79.6422 195.343 76.8855 196.088C71.8427 197.427 73.3641 203.725 72.5828 208.07C71.6364 213.693 69.4842 219.239 65.9789 223.605C62.8542 227.509 58.6695 230.277 54.0317 231.521C50.8296 232.364 47.9878 232.471 45.7136 235.348C43.6717 237.943 43.6397 241.848 41.4387 244.366C37.403 249.049 31.3313 249.615 25.7134 249.922C20.2639 250.215 16.16 250.839 14.94 257.022C14.0197 261.823 16.3385 266.957 13.1229 271.044C10.2938 274.62 -1.02281 276.04 0.0221252 282.301C0.692352 286.515 8.97435 287.219 5.22742 293.052C1.95033 298.183 -4.40007 296.278 -8.70609 298.065C-13.0273 299.882 -12.0581 305.495 -11.9116 309.98C-11.7887 313.365 -11.3752 316.16 -14.009 318.119C-15.768 319.45 -17.0327 317.896 -18.7336 320.266C-20.6904 322.98 -19.2472 326.453 -19.962 329.466C-21.1232 334.396 -23.1254 334.79 -27.002 335.387C-32.3934 336.216 -37.5734 332.615 -42.8317 334.328C-45.2348 335.134 -47.6766 337.719 -48.9514 339.981C-50.984 343.525 -50.0764 344.226 -49.0845 347.389C-47.046 354.1 -47.3836 360.806 -51.8126 366.679C-52.9636 368.219 -54.2973 369.592 -55.6824 370.9C-57.0448 372.147 -59.1456 373.327 -59.6297 375.279C-60.7488 379.497 -59.7114 384.556 -60.3842 388.937C-61.2624 394.701 -63.4642 400.11 -66.9198 404.634C-70.7476 409.658 -74.9483 412.027 -79.4328 411.69C-81.644 411.504 -83.7153 410.911 -85.4001 412.985C-86.8332 414.758 -88.0078 416.618 -89.6565 418.23C-93.7309 422.168 -98.6348 425.044 -103.623 427.394C-110.266 430.526 -121.055 433.759 -132.482 437.178L-149.846 442.542C-191.321 455.1 -198.286 466.266 -214.837 482.677C-221.799 489.1 -227.617 476.983 -224.482 472.829L-224.483 472.834ZM-123.976 231.282C-124.103 230.631 -124.195 229.997 -124.243 229.371C-124.435 226.637 -125.505 228.932 -126.481 233.588C-127.758 234.762 -129.092 236.003 -130.388 237.371C-131.833 235.324 -133.205 233.221 -134.502 231.076L-135.605 229.209C-133.312 228.522 -127.374 226.263 -122.702 220.352C-122.256 219.792 -121.843 219.166 -121.459 218.481C-121.457 220.78 -121.274 223.001 -120.854 225.038C-120.694 225.796 -120.526 226.542 -120.343 227.27C-121.276 228.626 -122.542 229.926 -123.975 231.282H-123.976ZM-136.629 227.405C-137.699 225.479 -138.719 223.527 -139.701 221.552C-140.557 219.839 -141.35 218.111 -142.13 216.377C-141.32 212.315 -139.652 201.429 -143.395 194.973C-146.68 189.311 -150.386 184.568 -152.555 180.361C-150.65 180.981 -148.776 181.076 -147.642 179.828C-143.913 185.89 -139.805 189.214 -139.805 189.214C-139.805 189.214 -134.84 174.612 -139.022 166.414C-142.986 158.242 -148.123 151.927 -148.498 146.466C-148.579 144.934 -149.154 145.44 -149.84 147.203C-150.246 146.532 -150.87 146.034 -151.814 145.703C-157.567 143.727 -157.491 159.482 -158.613 162.954C-160.655 169.181 -163.637 173.81 -157.293 177.983C-156.991 178.189 -156.711 178.367 -156.383 178.56L-156.252 178.637C-157.382 184.349 -158.061 194.537 -155.271 201.158C-153.038 206.286 -150.069 210.315 -147.554 213.14C-148.556 213.911 -149.112 215.247 -149.613 216.528C-152.985 212.334 -155.899 208.72 -156.907 205.23L-156.83 204.34C-156.319 197.381 -158.371 190.301 -161.808 187.132C-168.412 181.055 -176.87 180.342 -185.168 181.461C-187.519 181.785 -192.553 181.644 -193.379 184.715C-193.756 186.181 -193.031 188.168 -192.859 189.684C-192.709 190.83 -192.462 191.95 -191.935 192.964C-190.478 195.611 -187.271 196.676 -184.732 197.549C-177.51 199.964 -174.73 204.313 -173.68 207.552C-171.355 214.72 -175.481 221.513 -175.949 222.255C-177.462 224.651 -180.489 225.245 -182.723 223.644C-184.108 222.673 -184.847 221.094 -184.918 219.479C-184.967 218.411 -184.688 217.308 -184.108 216.344C-182.937 214.454 -182.285 211.942 -184.242 210.4C-186.349 208.752 -188.755 208.89 -190.68 210.694C-192.765 212.652 -193.207 216.216 -192.97 219.02C-192.892 219.793 -192.765 220.544 -192.489 221.252C-191.972 222.49 -190.999 223.639 -189.965 224.378C-185.205 227.789 -175.038 228.201 -166.963 222.867C-162.466 219.911 -159.933 215.906 -158.516 212.14C-158.512 216.729 -157.982 222.51 -156.405 227.338C-158.041 229.054 -159.855 230.571 -161.812 231.852C-172.312 238.764 -186.766 239.337 -195.415 233.143C-198.085 231.219 -200.299 228.529 -201.522 225.279C-202.784 221.864 -203.486 213.027 -200.696 207.642C-199.747 205.792 -197.402 203.924 -198.134 201.545C-198.368 200.792 -199.184 200.185 -199.636 199.522C-200.173 198.743 -200.628 197.89 -201.028 197.007C-202.415 193.878 -202.572 190.57 -202.9 187.182L-203.389 182.323C-203.744 180.237 -204.091 179.933 -207.811 178.658C-210.741 177.657 -214.412 176.394 -217.481 172.755C-220.96 168.572 -222.168 162.709 -223.201 157.513C-223.735 154.894 -224.629 150.522 -225.519 149.719L-226.151 149.18C-231.438 144.7 -242.475 135.387 -246.627 103.232C-246.799 101.92 -246.909 100.599 -246.965 99.3415C-247.335 90.6133 -244.754 82.2657 -239.716 75.4311C-235.099 69.1979 -228.921 64.4566 -222.418 60.6844C-219.596 59.0301 -216.62 57.5591 -213.655 56.1842C-212.4 55.594 -211.135 55.0344 -209.86 54.4888C-207.809 53.5888 -205.461 53.3557 -204.157 51.1304C-203.347 49.738 -203.63 48.0723 -203.426 46.4983C-202.243 37.3781 -197.325 30.5251 -190.033 25.7944C-179.025 18.6236 -171.579 20.2517 -164.393 21.8406C-159.337 22.9554 -154.101 24.0816 -146.402 22.6123C-145.335 22.4176 -144.265 22.2413 -143.189 22.1374C-134.311 21.1832 -125.467 23.6983 -118.218 29.3178C-114.384 32.2781 -111.11 35.97 -108.333 40.0355C-106.873 42.2267 -105.264 44.5803 -104.226 47.0622C-103.413 49.0073 -102.125 51.9877 -99.5854 50.6529L-98.6491 50.1273C-101.335 54.3614 -103.774 59.2973 -104.382 63.5182C-104.561 65.066 -104.632 66.5527 -104.626 67.9713C-106.139 69.4615 -107.605 71.032 -109.026 72.6846C-109.276 69.9897 -109.244 67.5942 -108.587 65.5505C-106.79 60.3789 -120.186 77.253 -120.876 88.4657L-120.905 90.0135C-122.222 92.3994 -123.481 94.8578 -124.676 97.3729C-125.109 95.1179 -125.259 93.0612 -124.891 91.22C-123.811 85.9306 -135.221 103.997 -134.347 115.231C-134.181 117.153 -133.869 118.966 -133.463 120.649C-134.249 123.309 -134.975 125.989 -135.638 128.686C-137.31 124.735 -138.561 121.269 -138.314 118.251C-137.878 112.857 -146.915 131.996 -144.681 143.125C-142.876 151.054 -138.88 156.81 -136.718 159.476C-135.814 167.871 -134.041 176.161 -131.443 184.148C-134.961 190.311 -134.574 201.085 -134.574 201.085C-134.574 201.085 -130.679 200.334 -126.243 197.384L-125.333 199.295C-124.729 200.54 -124.105 201.773 -123.454 202.996C-125.997 204.942 -129.07 206.955 -131.997 209.527C-136.262 213.381 -136.669 223.13 -136.633 227.403L-136.629 227.405ZM-91.4331 45.799C-87.5287 43.7466 -83.5065 41.9596 -79.4286 40.4022C-82.2704 44.2119 -84.5792 48.9383 -85.6359 54.5552C-87.4411 55.4657 -89.2195 56.4338 -90.9624 57.4718C-91.2226 53.0929 -91.6647 49.1443 -91.434 45.7999L-91.4331 45.799ZM-49.327 48.6118C-47.0999 49.2011 -44.0114 47.8593 -41.9527 47.1312C-38.5148 45.9047 -34.6264 45.8505 -31.0428 45.1181C-29.9305 44.8553 -28.5555 44.3018 -28.3013 43.1364C-27.6841 40.0853 -30.7961 40.2058 -32.4826 40.2372C-33.5174 40.2433 -34.5481 40.2843 -35.5686 40.3411C-39.5909 40.5602 -43.6097 41.1704 -47.3979 42.6135C-48.5043 43.015 -50.0486 43.2272 -50.8131 44.1613C-51.0009 44.4075 -51.1634 44.6973 -51.2425 45.0413C-51.5894 46.6048 -50.7702 48.2172 -49.327 48.6118ZM-70.3367 318.648C-73.3797 316.173 -79.0573 320.087 -81.9547 321.564C-86.5428 323.896 -90.3798 321.797 -94.5056 318.176C-96.4801 316.436 -99.5947 314.986 -99.79 320.529C-99.8161 320.974 -99.7993 321.389 -99.7387 321.756C-99.3909 324.568 -97.4518 325.444 -95.9404 327.092C-91.1115 332.386 -86.5074 335.966 -80.7228 337.729C-74.9997 339.486 -70.4664 337.308 -68.2687 331.8C-66.5847 327.592 -67.361 321.116 -70.3367 318.648ZM-7.79674 242.223C-8.77177 239.839 -14.8493 237.02 -17.1842 236.251C-20.8133 235.025 -24.7926 235.206 -28.4898 235.745C-35.3867 236.733 -42.0242 239.231 -48.4816 241.901C-54.4901 244.393 -61.0881 243.682 -66.6091 239.98C-69.7439 237.856 -70.8073 234.525 -74.6443 235.618C-77.9408 236.555 -80.4778 241.207 -80.631 244.659C-80.8095 249.089 -78.4199 253.091 -75.0477 255.629C-71.7344 258.115 -67.5135 259.18 -63.823 257.902C-53.7357 254.362 -41.6041 252.535 -28.7172 252.612L-24.8776 252.716C-20.218 252.848 -3.76689 252.042 -7.79674 242.222V242.223ZM21.7846 201.745C25.7126 200.248 34.4854 192.073 26.3373 191.004C18.1396 189.905 12.2641 186.072 5.88335 180.428C0.521454 175.698 -2.45758 173.283 -6.75266 174.373C-14.5564 176.348 -23.2879 177.387 -31.1792 175.438C-38.3135 173.678 -44.2219 173.749 -48.1667 181.628C-51.3469 188.01 -50.3769 198.418 -44.4981 202.402C-41.3186 204.549 -37.6635 204.955 -34.2138 203.546C-19.7271 197.598 -1.46231 191.877 10.9985 200.423C14.2916 202.682 18.132 203.151 21.7838 201.745L21.7846 201.745ZM-7.5399 206.776C-15.5356 207.44 -23.2618 210.346 -30.6925 213.401C-36.9975 215.983 -43.9432 215.217 -49.721 211.307C-54.0396 208.381 -55.2875 204.807 -60.8649 207.174C-64.1328 208.572 -66.6983 211.54 -68.0346 214.988C-71.9533 225.018 -61.3003 236.319 -51.906 232.435C-38.0247 226.656 -20.5371 221.124 -8.57135 229.428C-5.44583 231.606 -1.82689 232.078 1.61691 230.763C6.01303 229.067 10.7181 224.014 12.4577 219.384C16.1356 209.61 -2.13254 206.29 -7.5399 206.776ZM-97.8425 221.768C-101.656 215.396 -107.467 210.041 -112.257 205.217C-113.895 200.801 -115.067 196.893 -114.976 193.482C-114.917 190.869 -116.188 192.733 -117.622 196.84C-117.791 196.589 -118.015 196.721 -118.286 197.345L-118.584 197.962C-119.631 196.516 -120.633 195.015 -121.57 193.468C-121.183 193.06 -120.796 192.631 -120.422 192.18C-118.477 189.87 -117.043 186.368 -116.055 182.773C-114.624 185.814 -112.927 188.671 -111.06 191.276C-109.107 204.802 -102.776 213.918 -102.776 213.918C-102.776 213.918 -100.249 209.501 -98.2231 203.696C-95.9791 205.085 -93.7612 206.073 -91.684 206.595C-91.1729 203.682 -90.5322 200.328 -89.7331 196.578C-88.0946 196.808 -84.1557 197.155 -79.3495 196.121C-80.0846 199.546 -80.5367 202.991 -80.0551 205.371C-82.7478 206.298 -85.6611 207.29 -88.5846 208.638C-92.7854 210.617 -95.8747 216.598 -97.8425 221.766V221.768ZM-127.68 180.189C-128.459 177.795 -129.088 175.354 -129.553 172.876C-127.589 172.444 -123.996 171.386 -120.236 168.945C-119.996 170.678 -119.654 172.384 -119.218 174.059C-121.599 175.97 -124.639 177.842 -127.68 180.189ZM-130.271 167.644C-130.375 166.484 -130.44 165.321 -130.463 164.152C-130.499 161.96 -129.285 160.049 -127.522 159.219C-128.865 161.892 -129.73 165.025 -130.27 167.644H-130.271ZM-88.6461 191.675C-87.5624 186.942 -86.2489 181.696 -84.6819 176.005C-85.7614 175.642 -86.8408 175.21 -87.9135 174.718C-86.4148 172.013 -84.8141 168.676 -83.7321 165.193C-83.0661 165.476 -82.3984 165.729 -81.7324 165.941C-80.3532 161.377 -78.7963 156.583 -77.0795 151.587L-76.4942 149.924C-76.2273 150.494 -76.0648 150.797 -76.0648 150.797C-76.0648 150.797 -64.0882 137.194 -64.9958 126.2C-65.0447 125.4 -65.1062 124.611 -65.1777 123.829C-63.6427 120.812 -62.0665 117.882 -60.4793 115.05C-59.6373 119.491 -58.5056 122.235 -58.5056 122.235C-58.5056 122.235 -44.8677 110.319 -44.3701 99.6095C-44.1975 96.1097 -44.2657 92.7382 -44.328 89.5832C-42.3737 86.8385 -40.5112 84.3138 -38.7741 82.0379C-39.414 90.2676 -37.645 96.2345 -37.645 96.2345C-37.645 96.2345 -36.8813 95.7186 -35.6747 94.808C-45.5043 108.415 -57.8641 128.105 -66.2016 150.642C-71.9323 156.208 -75.6523 166.325 -75.6523 166.325C-75.6523 166.325 -74.0878 166.683 -71.5509 166.765C-72.4846 169.859 -73.3687 172.972 -74.2048 176.099C-74.998 176.319 -75.8038 176.554 -76.6104 176.814C-82.038 178.651 -86.3264 186.477 -88.6452 191.675H-88.6461ZM-96.4464 169.465C-98.3165 168.012 -100.124 166.404 -101.835 164.674C-102.076 162.921 -102.134 161.293 -101.94 159.796C-101.585 157.499 -102.804 158.687 -104.476 161.822C-106.463 159.53 -108.274 157.086 -109.855 154.55C-107.533 147.763 -106.967 141.412 -108.515 143.903C-109.526 145.552 -111.194 146.897 -113.233 148.202C-113.964 146.547 -114.586 144.878 -115.077 143.216C-113.035 142.346 -110.84 141.148 -108.693 139.497C-107.887 138.87 -107.11 138.108 -106.365 137.242C-105.539 142.349 -102.46 148.34 -98.2062 153.589C-98.314 154.557 -98.3687 155.511 -98.3595 156.434C-98.2483 161.32 -97.4493 165.753 -96.4473 169.465H-96.4464ZM-80.253 137.875C-82.3016 136.685 -84.282 135.239 -86.1546 133.611C-86.2363 131.757 -86.1319 130.06 -85.742 128.547C-85.1273 126.164 -86.7692 127.506 -89.0527 130.853C-93.5524 126.188 -97.1916 120.52 -99.2427 114.957L-98.1372 114.223C-96.0431 112.752 -94.0627 110.403 -92.3433 107.81C-91.4584 108.414 -90.7469 109.323 -90.3596 110.463C-88.7244 115.231 -85.1315 120.52 -80.8744 124.528C-80.9687 125.179 -81.0369 125.819 -81.0731 126.453C-81.2583 130.631 -80.8777 134.504 -80.2538 137.876L-80.253 137.875ZM-61.371 106.174C-63.3413 105.251 -65.2408 104.104 -67.0453 102.732C-66.9307 101.684 -66.7396 100.7 -66.4365 99.7858C-65.7309 97.7457 -67.0647 98.5244 -69.1722 100.979C-72.0982 98.3698 -74.7639 95.1328 -77.135 91.2934C-78.6313 88.8595 -78.0166 85.6023 -75.744 83.9916C-73.4933 82.4002 -70.431 83.0645 -68.9474 85.4888C-66.3228 89.7464 -63.3253 92.9424 -59.9825 95.09C-60.3109 96.0608 -60.5744 97.0254 -60.7563 97.9691C-61.2312 100.852 -61.3996 103.616 -61.371 106.175V106.174ZM-137.782 98.1333C-136.821 97.7422 -135.89 97.0813 -135.009 96.0459C-132.264 92.9311 -131.23 88.3732 -129.227 84.7459C-128.083 82.6385 -126.278 80.8619 -126.535 78.4001C-127.5 69.6789 -146.607 76.3538 -150.539 79.3037C-153.878 81.7917 -155.319 84.738 -154.978 88.3051C-154.19 96.4772 -152.912 96.7033 -147.508 97.6138C-144.085 98.1743 -140.765 99.3441 -137.782 98.1333ZM-229.216 121.302C-229.005 125.152 -227.305 131.489 -224.284 134.864C-223.5 135.748 -222.655 136.418 -221.69 136.81C-217.414 138.523 -211.215 135.037 -208.494 131.861C-201.597 123.777 -203.093 116.477 -205.558 111.778C-209.011 105.177 -215.177 101.953 -218.083 102.547C-225.796 104.16 -229.627 113.777 -229.217 121.303L-229.216 121.302ZM-227.522 95.6522C-225.269 93.9333 -222.709 92.7731 -219.965 92.203C-212.178 90.5985 -202.074 96.9329 -196.976 106.64C-191.331 117.421 -192.892 129.221 -201.236 138.988C-202.7 140.714 -213.525 145.973 -211.264 149.438C-210.123 151.209 -202.439 150.952 -200.804 150.686C-197.484 150.13 -194.348 148.622 -191.806 146.289C-186.756 141.681 -184.138 134.166 -184.883 126.752C-195.668 109.723 -194.7 79.8938 -186.141 60.5788C-185 57.9694 -182.067 56.8607 -179.608 58.1047C-177.157 59.3662 -176.107 62.5107 -177.284 65.1306C-184.525 81.4853 -185.458 106.663 -177.131 120.27C-176.471 120.847 -175.934 121.598 -175.641 122.514C-175.066 123.195 -174.542 123.883 -173.937 124.484C-168.192 130.313 -161.193 134.382 -153.318 135.435C-151.029 135.737 -149.28 134.966 -147.888 133.577C-144.998 130.63 -143.745 124.973 -142.845 120.944C-141.46 114.866 -142.396 109.128 -149.014 108.019C-156.766 106.703 -163.311 104.394 -164.755 89.3588C-165.464 81.9654 -162.434 75.3342 -156.171 70.6636C-149.687 65.7819 -141.353 63.8298 -133.506 63.9652C-126.578 64.0865 -118.455 69.8954 -113.57 62.172C-112.189 59.993 -111.256 57.6918 -111.6 55.0109C-112.179 51.0361 -116.042 46.3062 -118.48 43.3293C-125.146 35.0865 -134.527 31.0603 -144.64 32.9992C-154.222 34.8272 -160.94 33.3501 -166.325 32.1768C-172.858 30.7172 -177.202 29.7936 -184.912 34.8133C-192.821 39.9578 -193.341 44.6615 -193.897 49.6332C-194.309 53.4369 -194.885 58.6591 -199.912 61.4466L-204.708 63.6448C-213.198 67.5453 -221.847 71.2634 -228.63 78.2054C-232.25 81.8973 -235.345 86.5827 -236.489 91.9027C-237.117 94.8866 -236.867 103.332 -232.08 100.277C-230.425 99.228 -229.141 96.8927 -227.521 95.6513L-227.522 95.6522ZM-191.685 172.027C-189.165 171.514 -186.341 171.282 -183.571 170.844C-178.736 170.122 -173.95 168.909 -170.724 165.055C-167.132 160.794 -165.84 153.704 -166.725 148.071C-167.505 143.338 -171.475 138.694 -175.615 137.131C-178.044 143.668 -180.249 149.615 -185.432 154.328C-192.648 160.919 -202.146 162.989 -212.476 160.346C-210.178 168.912 -199.561 173.592 -191.686 172.028L-191.685 172.027ZM-19.5536 66.4017L-18.2755 66.3275C-16.8617 66.2166 -15.4725 65.9975 -14.1236 65.6736C-14.3678 69.9818 -13.9122 72.7737 -13.9122 72.7737C-13.9122 72.7737 2.52544 64.4837 5.49352 54.4033C6.82388 50.2303 7.72734 46.1735 8.63417 42.5122L9.06699 42.5689C11.737 43.0578 13.5608 45.7859 13.1052 48.6607C10.3931 66.0612 -3.82921 77.8126 -21.1737 77.3752C-21.0087 76.8182 -20.8722 76.263 -20.7813 75.7034C-20.2214 72.4707 -19.8736 69.3419 -19.5553 66.4017H-19.5536ZM19.7436 56.2034L19.3007 55.2797C18.6237 53.8026 18.0974 52.2862 17.7042 50.7445C20.1267 49.4473 23.2876 47.586 26.2472 45.304C26.52 46.686 26.9006 48.0313 27.3915 49.3294C27.9826 50.9069 28.9391 52.3098 30.2131 53.5573L28.9096 53.4831C25.9736 53.3347 22.7479 54.5316 19.7436 56.2042V56.2034ZM67.439 27.6102C68.0081 31.7709 67.6697 35.0979 66.837 37.7413L66.7486 37.7247C63.8091 37.0874 60.6028 36.389 57.1927 35.9281L56.9678 35.901C57.6541 34.7915 57.9302 33.3789 57.9723 31.9167C61.8262 30.9931 64.8692 29.4548 67.4381 27.6111L67.439 27.6102ZM40.1959 42.1569L39.955 41.7326C35.9261 34.1934 38.0462 27.9472 39.9155 25.4591C41.5515 23.2705 44.5036 22.9371 46.6112 24.6027L46.9656 24.9126C45.0737 27.0768 43.3366 29.5448 41.8311 32.3532C43.8056 32.6098 45.6488 32.7574 47.3824 32.8255L47.3791 33.3344C47.4111 34.1908 47.6721 35.3475 48.4391 36.8072C48.5436 36.9818 48.7616 37.1677 49.0639 37.3432C45.7961 38.6317 42.6133 40.5331 40.1967 42.1578L40.1959 42.1569Z" fill="#915507"/>
<path d="M58.4805 58.3036C58.0688 58.9679 57.5872 59.6497 57.0356 60.3498C56.2736 61.3171 55.1437 62.4878 53.772 63.71C49.2269 67.7598 40.4557 73.7791 32.3961 75.9232C32.1106 76.474 31.7865 77.0415 31.4194 77.6203C30.7854 78.6242 29.7648 79.9119 28.4724 81.3218C24.4754 85.6841 16.7482 92.2377 9.18872 95.3464C8.87212 96.3128 8.42671 97.3316 7.85162 98.4036C7.26811 99.4914 6.32507 100.866 5.12521 102.364C1.53575 106.842 -5.37798 113.533 -12.4895 117.18C-12.6866 118.121 -12.9922 119.124 -13.4056 120.183C-13.8536 121.332 -14.6485 122.84 -15.6993 124.526C-18.7339 129.388 -24.7491 136.74 -31.3555 141.207C-31.4599 142.097 -31.6502 143.047 -31.9256 144.054C-32.28 145.35 -32.9023 146.954 -33.7266 148.668C-36.1979 153.804 -41.2836 161.685 -47.2273 166.916C-46.9334 168.558 -47.0707 170.544 -47.6264 172.838C-47.9177 174.039 -48.5004 175.66 -49.313 177.506C-51.4491 182.353 -55.7038 189.598 -60.8181 194.963C-60.195 196.652 -60.0662 198.831 -60.4198 201.453C-60.5916 202.709 -61.0076 204.405 -61.6281 206.336C-63.2818 211.485 -66.8233 219.305 -71.3979 225.306C-70.7639 226.886 -70.4944 228.928 -70.577 231.393C-70.6224 232.771 -70.8523 234.52 -71.2421 236.433C-72.3864 242.043 -75.2316 250.86 -79.3094 257.621C-78.8774 258.907 -78.5844 260.441 -78.427 262.21C-78.3091 263.554 -78.3099 265.289 -78.437 267.204C-78.9734 275.17 -81.763 289.806 -87.3387 297.254C-93.0981 305.014 -100.023 308.719 -104.128 310.357C-103.819 313.572 -103.489 316.711 -103.139 319.765C-102.481 325.505 -101.734 331.112 -100.942 336.507C-100.059 342.521 -99.2557 347.521 -98.5298 351.705C-97.7628 356.147 -100.614 360.395 -104.898 361.19C-107.81 361.731 -110.636 360.536 -112.388 358.321L-112.407 358.338C-113.267 357.25 -114.955 355.059 -116.641 352.872C-117.332 351.971 -117.808 350.966 -118.082 349.922L-118.095 349.924C-119.609 344.148 -121.119 337.867 -122.6 331.067C-123.977 324.741 -125.209 318.504 -126.248 312.447C-127.401 305.73 -128.419 298.861 -129.257 291.895C-129.974 285.929 -130.569 279.781 -131.011 273.478C-131.456 272.469 -131.913 271.362 -132.386 270.143C-133.063 268.401 -133.692 266.607 -134.243 264.778C-134.291 264.619 -134.333 264.461 -134.371 264.301C-137.327 253.736 -135.753 238.756 -134.013 230.995L-134.005 230.965L-134.013 230.963C-133.56 228.949 -133.057 227.239 -132.57 226.028C-131.578 223.564 -130.484 221.672 -129.298 220.384C-129.637 210.72 -127.112 199.843 -124.944 193.751C-124.246 191.786 -123.518 190.134 -122.861 188.979C-121.68 186.904 -120.456 185.33 -119.199 184.284C-118.533 174.743 -114.717 164.383 -111.812 158.68C-110.861 156.813 -109.942 155.291 -109.174 154.283C-108.019 152.76 -106.876 151.565 -105.751 150.71C-104.176 141.33 -99.1294 131.445 -95.5003 126.126C-94.3426 124.429 -93.2117 123.026 -92.2603 122.076C-90.6546 120.476 -89.1137 119.355 -87.6562 118.737C-85.1807 110.048 -79.7809 101.348 -75.9574 96.6C-74.7129 95.0557 -73.4861 93.7611 -72.4394 92.8671C-70.2107 90.9605 -68.152 89.8474 -66.3088 89.5724C-62.7067 81.4012 -56.1206 73.5102 -51.652 69.3199C-50.155 67.9152 -48.7766 66.8048 -47.6938 66.1133C-45.4237 64.6633 -43.3886 63.8558 -41.6237 63.7187C-37.0693 55.9299 -29.3456 48.7382 -24.2827 45.0794C-22.6172 43.8738 -21.1049 42.9458 -19.9387 42.3932C-17.7032 41.3334 -15.7279 40.7887 -14.0439 40.7799C-8.53885 33.4992 0.265182 27.0521 5.80894 23.9233C7.6041 22.9106 9.1761 22.1607 10.3338 21.7522C12.6308 20.9394 14.623 20.5658 16.2801 20.647C22.3392 13.9948 31.3318 8.29061 36.953 5.55727C38.7709 4.6738 40.3757 4.02604 41.5756 3.67858C48.8606 1.57118 52.9461 3.43589 52.9503 9.697C56.1482 7.84276 59.4025 6.45121 62.5542 5.45425C72.1572 2.41536 81.5212 3.17661 85.9366 5.72401L86.142 5.84623C87.2299 6.44772 88.1965 7.32159 88.9384 8.45037C91.3962 12.1842 90.4683 17.2772 86.8679 19.8263L86.3702 20.2305V20.2297L83.5504 23.1516L80.552 26.2516L80.5486 26.2551C79.3008 27.6466 78.0168 29.0513 76.6114 30.4166C77.9401 30.1251 79.2073 30.1478 80.4013 30.4594C80.9848 30.6043 81.5616 30.8208 82.1198 31.1133C88.7473 34.5904 89.0007 39.5473 83.6456 45.1353C82.8936 45.9193 81.7864 46.8926 80.4442 47.9219C75.7458 51.5274 66.7794 56.8474 58.4797 58.3018L58.4805 58.3036ZM-85.339 216.108C-86.3351 216.577 -87.2663 217.687 -88.1109 219.116C-87.6696 218.849 -87.2242 218.556 -86.7763 218.242C-86.6634 218.154 -86.5473 218.069 -86.4294 217.987C-85.5268 217.36 -84.6376 216.472 -83.7788 215.411C-84.1846 215.579 -84.5913 215.755 -84.9963 215.937L-85.339 216.107V216.108ZM-90.3497 158.77C-90.2883 157.985 -90.3009 157.222 -90.3994 156.498L-90.4735 155.956L-90.476 156.274C-90.4567 157.124 -90.4121 157.958 -90.3489 158.77H-90.3497ZM-58.9615 155.269C-59.7294 155.509 -60.4981 156.053 -61.2475 156.795C-60.8349 156.623 -60.419 156.435 -60.0014 156.231C-59.8683 156.154 -59.7336 156.081 -59.5955 156.012C-59.0709 155.749 -58.5422 155.412 -58.0125 155.019C-58.3275 155.106 -58.6415 155.197 -58.9564 155.289L-58.9615 155.269ZM-73.1947 130.316C-72.9135 129.126 -72.7864 127.963 -72.8756 126.874C-72.8908 126.69 -72.8983 126.508 -72.9009 126.328L-72.9884 125.169C-73.0886 125.758 -73.1568 126.339 -73.1897 126.902L-73.1973 127.029C-73.2419 128.156 -73.2368 129.254 -73.1947 130.317V130.316ZM25.1986 35.5935C26.001 34.6594 26.6351 33.6947 27.0106 32.7187L27.0569 32.6017C26.625 33.1474 26.2377 33.6939 25.9017 34.2404L25.9076 34.243C25.6575 34.6961 25.4209 35.1465 25.1986 35.5935ZM-97.9118 283.744C-98.529 284.441 -99.0384 285.484 -99.4552 286.728C-98.8944 285.879 -98.3816 284.868 -97.9118 283.744ZM-74.2052 184.614C-75.1457 184.946 -76.0845 185.78 -76.9787 186.888C-76.4693 186.674 -75.9557 186.434 -75.437 186.168C-75.2728 186.064 -75.1027 185.964 -74.9293 185.87C-74.1403 185.445 -73.3429 184.844 -72.5523 184.119C-73.1055 184.275 -73.6587 184.439 -74.2052 184.614ZM-4.12758 55.6688C-3.15254 54.4842 -2.40652 53.2559 -2.047 52.0328L-1.99141 51.8495L-2.01669 51.8408L-1.70007 50.8229C-2.2356 51.5658 -2.69618 52.3113 -3.06583 53.049L-3.05571 53.0534C-3.45903 53.9368 -3.8152 54.8107 -4.12758 55.6688ZM-53.4202 103.399C-52.7517 101.971 -52.3138 100.554 -52.2507 99.2269C-52.2094 98.3827 -52.1825 97.549 -52.1665 96.7257C-52.5387 97.6852 -52.8233 98.6271 -52.9976 99.5394C-53.2097 100.865 -53.3453 102.157 -53.4202 103.4V103.399ZM-52.9976 99.5385V99.5394V99.5385ZM-30.3367 78.4322C-29.4374 77.0607 -28.7899 75.6674 -28.5676 74.3282C-28.5348 74.1222 -28.4935 73.9205 -28.4455 73.7215C-28.3588 73.1942 -28.278 72.6573 -28.1997 72.1117C-28.72 73.0484 -29.1419 73.9773 -29.4383 74.8861L-29.4307 74.8896C-29.807 76.0978 -30.1059 77.2842 -30.3375 78.433L-30.3367 78.4322ZM-93.3465 249.154C-94.2769 249.803 -95.0844 251.074 -95.7757 252.651C-95.5382 252.446 -95.2991 252.231 -95.0625 252.01L-94.7939 251.749C-93.914 250.938 -93.0753 249.817 -92.2914 248.506C-92.6459 248.717 -92.9978 248.934 -93.3473 249.155L-93.3465 249.154Z" fill="#915507"/>
<path fill-rule="evenodd" clip-rule="evenodd" d="M8.48654 64.9022C8.48654 64.9022 20.033 53.0312 28.9069 53.4834C37.7681 53.8815 45.3058 56.2613 50.4235 54.2918C55.5639 52.2926 39.1784 67.2889 27.9436 68.4788C16.7323 69.6792 8.48567 64.9022 8.48567 64.9022H8.48654ZM-100.445 230.254C-100.445 230.254 -96.4921 212.362 -88.5865 208.64C-80.6523 204.983 -72.8158 203.974 -69.1674 199.611C-65.4895 195.269 -72.7375 218.313 -82.0442 224.779C-91.1067 231.339 -100.445 230.254 -100.445 230.254ZM-91.8805 181.011C-91.8805 181.011 -81.075 166.451 -82.5839 155.376C-84.0885 144.304 -87.3699 134.854 -85.7439 128.546C-84.1088 122.194 -98.5104 142.318 -98.3605 156.434C-98.0414 170.644 -91.8797 181.011 -91.8797 181.011H-91.8805ZM-75.6551 166.326C-75.6551 166.326 -69.6389 149.958 -61.122 147.406C-52.5841 144.868 -44.4874 144.82 -40.3734 141.048C-36.1886 137.316 -46.0501 158.292 -56.166 163.379C-66.1783 168.487 -75.6542 166.326 -75.6542 166.326H-75.6551ZM-76.0676 150.798C-76.0676 150.798 -64.091 137.195 -64.9986 126.2C-65.6781 115.338 -68.4778 105.948 -66.4384 99.7853C-64.3343 93.7136 -80.3004 112.61 -81.0742 126.453C-81.6889 140.297 -76.0668 150.798 -76.0668 150.798H-76.0676ZM-110.253 248.692C-110.253 248.692 -103.073 231.242 -106.647 220.271C-110.21 209.258 -115.162 200.364 -114.978 193.483C-114.821 186.629 -123.838 210.58 -120.856 225.039C-117.839 239.523 -110.253 248.693 -110.253 248.693V248.692ZM-59.3412 137.4C-59.3412 137.4 -51.6705 122.178 -42.9002 120.496C-34.14 118.807 -26.05 119.482 -21.4981 116.235C-16.9555 113.026 -28.7907 132.441 -39.4758 136.389C-50.0017 140.381 -59.3412 137.4 -59.3412 137.4ZM71.1435 38.5858C69.67 38.3055 68.194 38.0323 66.7466 37.7259C63.8072 37.0886 60.6008 36.3902 57.1907 35.9292C48.5871 34.7725 35.8753 45.3349 35.8753 45.3349C35.8753 45.3349 43.4576 50.7195 54.5981 50.51C65.764 50.3214 81.7435 37.409 78.0984 38.4574C74.4526 39.5068 73.7319 38.9707 71.1427 38.5858H71.1435ZM13.5824 52.7754C13.5824 52.7754 30.595 45.4501 34.3319 35.7293C38.2657 26.081 39.6904 16.9914 44.2717 12.4536C48.8825 7.93581 25.8192 18.7103 19.0453 30.1727C12.6292 41.8001 13.5824 52.7745 13.5824 52.7745V52.7754ZM74.7692 20.6806C76.9154 18.4659 79.0609 16.2476 81.2004 14.0223C81.5902 13.7089 81.9969 13.365 82.4171 13.0673C76.8464 9.268 53.0059 11.5203 41.8291 32.3552C61.3232 34.8703 68.5358 27.6349 74.7692 20.6806ZM-109.296 303.501C-109.296 303.501 -109.517 283.803 -103.125 277.572C-96.669 271.424 -89.6206 268.106 -87.252 262.546C-84.875 256.991 -86.5178 282.818 -93.5864 292.258C-100.588 301.694 -109.295 303.501 -109.295 303.501H-109.296ZM-16.7694 86.844C-16.7694 86.844 -6.60134 73.6714 2.39043 73.3353C11.3805 72.9538 19.2339 74.7033 24.2186 72.2528C29.1805 69.7883 14.2618 86.4529 3.16673 88.7148C-7.96709 90.9532 -16.7694 86.844 -16.7694 86.844ZM-90.5535 196.448C-90.5535 196.448 -84.9146 179.628 -76.6133 176.816C-68.2151 174.105 -60.1664 173.94 -56.1441 170.069C-52.089 166.171 -61.4151 187.823 -71.2842 193.142C-81.1171 198.489 -90.5535 196.447 -90.5535 196.447V196.448ZM-13.9142 72.7748C-13.9142 72.7748 2.52348 64.4849 5.49155 54.4044C8.65495 44.482 9.40013 35.2212 13.5293 30.3761C17.8151 25.579 -4.41972 37.6071 -10.1984 49.5602C-15.7236 61.6633 -13.915 72.7748 -13.915 72.7748H-13.9142ZM-58.5085 122.237C-58.5085 122.237 -44.8705 110.321 -44.3729 99.6115C-43.8525 88.9575 -45.5306 79.4541 -42.6434 73.7901C-39.7494 68.0895 -58.2255 84.7025 -60.7591 97.9694C-62.9803 111.418 -58.5093 122.237 -58.5093 122.237H-58.5085ZM-37.6486 96.2365C-37.6486 96.2365 -22.506 86.1054 -20.7832 75.7055C-18.9814 65.3046 -19.3813 55.9627 -15.8306 50.6418C-12.2765 45.3689 -32.8694 59.6642 -36.9447 72.3907C-40.9282 85.1687 -37.6495 96.2365 -37.6495 96.2365H-37.6486ZM-102.778 213.921C-102.778 213.921 -93.6335 197.937 -96.1764 186.798C-98.6056 175.73 -102.816 166.456 -101.942 159.797C-100.93 153.219 -112.809 175.225 -111.281 189.603C-109.635 204.05 -102.778 213.921 -102.778 213.921ZM-106.984 265.8C-106.984 265.8 -104.78 246.978 -97.4798 242.18C-90.0491 237.46 -82.4862 235.482 -79.4297 230.546C-76.2554 225.64 -81.1626 250.143 -89.5422 257.87C-97.7855 265.723 -106.984 265.8 -106.984 265.8ZM-113.998 283.436C-113.368 296.386 -112.337 309.024 -110.994 320.726C-109.641 332.516 -107.974 343.463 -106.292 353.148C-107.681 351.388 -109.073 349.585 -110.464 347.778C-113.511 336.167 -116.266 323.825 -118.464 311.04C-120.659 298.26 -122.347 284.915 -123.241 271.359C-124.496 268.685 -125.696 265.682 -126.708 262.345C-130.928 248.06 -124.74 222.41 -124.245 229.372C-123.693 236.415 -117.999 244.84 -113.56 255.551C-109.915 264.404 -112.881 278.769 -113.999 283.435L-113.998 283.436ZM-39.8008 110.269C-39.8008 110.269 -30.4292 96.3588 -21.5452 95.553C-12.5838 94.7943 -4.5494 96.2435 0.302231 93.5364C5.14377 90.8187 -8.70806 108.513 -19.7148 111.324C-30.7315 114.081 -39.7999 110.268 -39.7999 110.268L-39.8008 110.269Z" fill="white"/>
</g>
</svg>
